<svg xmlns="http://www.w3.org/2000/svg" viewBox="255.26 29.43 198.17 387.26"><g id="freepik--Device--inject-7"><rect x="256.59" y="29.43" width="195.56" height="387.26" rx="25.34" style="fill:#455a64"/><rect x="163.83" y="128.36" width="381.1" height="189.4" rx="22.23" transform="translate(577.43 -131.31) rotate(90)" style="fill:#263238"/><path d="M340.33,44.72a2.18,2.18,0,1,1,0-4.35h28a2.18,2.18,0,0,1,0,4.35Z" style="fill:#455a64"/><path d="M325.33,44.72a2.18,2.18,0,1,1,2.18-2.18A2.18,2.18,0,0,1,325.33,44.72Z" style="fill:#455a64"/><path d="M333.34,44.72a2.18,2.18,0,1,1,2.17-2.18A2.19,2.19,0,0,1,333.34,44.72Z" style="fill:#455a64"/><path d="M383.42,44.72a2.18,2.18,0,1,1,2.17-2.18A2.19,2.19,0,0,1,383.42,44.72Z" style="fill:#455a64"/><path d="M375.41,44.72a2.18,2.18,0,1,1,2.18-2.18A2.18,2.18,0,0,1,375.41,44.72Z" style="fill:#455a64"/><path d="M427.86,34.71H400.4a9.78,9.78,0,0,0-9.38,7l-.47,1.6a10.46,10.46,0,0,1-10,7.55H328.24a10.47,10.47,0,0,1-10.05-7.55l-.46-1.6a9.78,9.78,0,0,0-9.39-7H283.43a19.35,19.35,0,0,0-19.35,19.35v335.8a18.2,18.2,0,0,0,18.2,18.2H428.19a16.47,16.47,0,0,0,16.48-16.47V51.52A16.82,16.82,0,0,0,427.86,34.71Z" style="fill:#fff"/><path d="M453.22,113.6h.22a0,0,0,0,1,0,0v44.51a0,0,0,0,1,0,0h-.22a1.07,1.07,0,0,1-1.07-1.07V114.67A1.07,1.07,0,0,1,453.22,113.6Z" transform="translate(905.58 271.71) rotate(180)" style="fill:#455a64"/><path d="M256.33,141h.26a0,0,0,0,1,0,0v28.18a0,0,0,0,1,0,0h-.26a1.07,1.07,0,0,1-1.07-1.07v-26A1.07,1.07,0,0,1,256.33,141Z" style="fill:#455a64"/><path d="M256.33,104.21h.26a0,0,0,0,1,0,0v28.18a0,0,0,0,1,0,0h-.26a1.07,1.07,0,0,1-1.07-1.07v-26A1.07,1.07,0,0,1,256.33,104.21Z" style="fill:#455a64"/><path d="M256.4,76.58h.2a0,0,0,0,1,0,0v13.1a0,0,0,0,1,0,0h-.2a.95.95,0,0,1-.95-.95V77.53A.95.95,0,0,1,256.4,76.58Z" style="fill:#455a64"/><rect x="400.83" y="47.72" width="1.34" height="1.88" style="fill:#263238"/><rect x="403.01" y="46.88" width="1.34" height="2.72" style="fill:#263238"/><rect x="405.2" y="46.26" width="1.34" height="3.35" style="fill:#263238"/><rect x="407.39" y="45.04" width="1.34" height="4.57" style="fill:#263238"/><path d="M428.56,49.7h-6.74a.49.49,0,0,1-.49-.48V45.87a.49.49,0,0,1,.48-.49h6.75a.18.18,0,0,1,.09,0,.12.12,0,0,1,0,.09v1.1h.72a.13.13,0,0,1,.13.12v1.62a.12.12,0,0,1-.13.12h-.72v1.11A.12.12,0,0,1,428.56,49.7Zm-.12-4.07h-6.63a.23.23,0,0,0-.23.24v3.35a.23.23,0,0,0,.24.23h6.62v-1.1a.12.12,0,0,1,.12-.12h.72V46.86h-.72a.12.12,0,0,1-.12-.13Z" style="fill:#263238"/><polygon points="422.13 48.9 422.13 46.18 427.89 46.18 427.89 47.41 427.89 47.68 427.89 48.9 422.13 48.9" style="fill:#263238"/><path d="M415.16,49.44a.5.5,0,1,0-.49.5A.49.49,0,0,0,415.16,49.44Z" style="fill:#263238"/><path d="M413,48.26l.63.62a1.54,1.54,0,0,1,1.06-.43,1.52,1.52,0,0,1,1.05.43l.63-.62a2.38,2.38,0,0,0-3.37,0Z" style="fill:#263238"/><path d="M414.67,46.16A3.76,3.76,0,0,0,412,47.27l.63.62a2.91,2.91,0,0,1,4.09,0l.63-.62A3.76,3.76,0,0,0,414.67,46.16Z" style="fill:#263238"/><path d="M411,46.24l.63.63a4.33,4.33,0,0,1,6.13,0l.63-.63a5.23,5.23,0,0,0-7.39,0Z" style="fill:#263238"/><path d="M338.42,73.08v2.19h3.84v1.55h-3.84v3H336.5v-8.3h6.27v1.54Z" style="fill:#263238"/><path d="M345,79.51a3.21,3.21,0,0,1-1.26-1.16,3.44,3.44,0,0,1,0-3.4A3.21,3.21,0,0,1,345,73.79a4.09,4.09,0,0,1,3.61,0A3.15,3.15,0,0,1,349.86,75a3.44,3.44,0,0,1,0,3.4,3.15,3.15,0,0,1-1.24,1.16,4,4,0,0,1-3.61,0Zm3-1.57a2,2,0,0,0,0-2.58,1.52,1.52,0,0,0-1.16-.48,1.57,1.57,0,0,0-1.18.48,2,2,0,0,0,0,2.58,1.57,1.57,0,0,0,1.18.48A1.52,1.52,0,0,0,348,77.94Z" style="fill:#263238"/><path d="M352.77,79.51a3.18,3.18,0,0,1-1.25-1.16,3.44,3.44,0,0,1,0-3.4,3.18,3.18,0,0,1,1.25-1.16,3.86,3.86,0,0,1,1.81-.42,3.81,3.81,0,0,1,1.81.42A3.15,3.15,0,0,1,357.63,75a3.44,3.44,0,0,1,0,3.4,3.15,3.15,0,0,1-1.24,1.16,3.7,3.7,0,0,1-1.81.43A3.75,3.75,0,0,1,352.77,79.51Zm3-1.57a2,2,0,0,0,0-2.58,1.53,1.53,0,0,0-1.17-.48,1.56,1.56,0,0,0-1.17.48,2,2,0,0,0,0,2.58,1.56,1.56,0,0,0,1.17.48A1.53,1.53,0,0,0,355.75,77.94Z" style="fill:#263238"/><path d="M365.81,71v8.8h-1.76v-.73a2.47,2.47,0,0,1-2,.83,3.32,3.32,0,0,1-1.63-.41,2.93,2.93,0,0,1-1.14-1.15,3.77,3.77,0,0,1,0-3.46,2.93,2.93,0,0,1,1.14-1.15,3.31,3.31,0,0,1,1.63-.4,2.39,2.39,0,0,1,1.91.77V71Zm-2.27,6.9a2,2,0,0,0,0-2.58,1.67,1.67,0,0,0-2.34,0,2,2,0,0,0,0,2.58,1.67,1.67,0,0,0,2.34,0Z" style="fill:#263238"/><rect x="272.95" y="289.2" width="161.46" height="41.68" style="fill:#e0e0e0"/><path d="M285.51,308.15h-2.66v-1.56h7.24v1.56h-2.66v6.74h-1.92Z" style="fill:#263238"/><path d="M292.69,314.47a4.12,4.12,0,0,1-1.62-1.53,4.24,4.24,0,0,1-.59-2.2,4.19,4.19,0,0,1,.59-2.2,4.07,4.07,0,0,1,1.62-1.54,5.13,5.13,0,0,1,4.66,0,4.28,4.28,0,0,1,1.62,5.94,4.19,4.19,0,0,1-1.62,1.53,5.13,5.13,0,0,1-4.66,0Zm3.66-1.41a2.36,2.36,0,0,0,.93-.95,3,3,0,0,0,0-2.75,2.34,2.34,0,0,0-.93-.94,2.77,2.77,0,0,0-2.66,0,2.47,2.47,0,0,0-.93.94,3,3,0,0,0,0,2.75,2.5,2.5,0,0,0,.93.95,2.85,2.85,0,0,0,2.66,0Z" style="fill:#263238"/><path d="M302.61,308.15H300v-1.56h7.23v1.56h-2.66v6.74h-1.92Z" style="fill:#263238"/><path d="M313.28,313.11h-3.86l-.73,1.78h-2l3.7-8.3h1.9l3.71,8.3h-2Zm-.61-1.46-1.32-3.18L310,311.65Z" style="fill:#263238"/><path d="M316.89,306.59h1.93v6.73H323v1.57h-6.09Z" style="fill:#263238"/><path d="M324,310.39a1.13,1.13,0,0,1-.33-.83,1.08,1.08,0,0,1,.33-.82,1.17,1.17,0,0,1,.82-.32,1.14,1.14,0,0,1,.82.32,1.08,1.08,0,0,1,.33.82,1.13,1.13,0,0,1-.33.83,1.11,1.11,0,0,1-.82.33A1.14,1.14,0,0,1,324,310.39Zm0,4.26a1.13,1.13,0,0,1-.33-.83A1.08,1.08,0,0,1,324,313a1.17,1.17,0,0,1,.82-.32,1.14,1.14,0,0,1,.82.32,1.08,1.08,0,0,1,.33.82,1.13,1.13,0,0,1-.33.83,1.11,1.11,0,0,1-.82.33A1.14,1.14,0,0,1,324,314.65Z" style="fill:#263238"/><path d="M404.84,313.49a3.43,3.43,0,0,1-2,.86v1.33H401.6v-1.29a6.58,6.58,0,0,1-1.67-.31,4.13,4.13,0,0,1-1.28-.64l.65-1.45a4.24,4.24,0,0,0,1.06.56,4.77,4.77,0,0,0,1.24.29v-2a8.24,8.24,0,0,1-1.42-.45,2.42,2.42,0,0,1-1-.73,1.9,1.9,0,0,1-.4-1.27,2.28,2.28,0,0,1,.72-1.69,3.4,3.4,0,0,1,2.07-.86v-1.32h1.19v1.3a5.11,5.11,0,0,1,2.4.72L404.6,308a4.7,4.7,0,0,0-1.81-.62v2a8.08,8.08,0,0,1,1.4.43,2.4,2.4,0,0,1,1,.72,2,2,0,0,1,.39,1.27A2.25,2.25,0,0,1,404.84,313.49Zm-3.89-4.7a1.87,1.87,0,0,0,.65.32v-1.68a1.28,1.28,0,0,0-.66.33.76.76,0,0,0-.22.54A.62.62,0,0,0,401,308.79Zm2.48,3.69a.69.69,0,0,0,.21-.51.61.61,0,0,0-.22-.49,2.15,2.15,0,0,0-.63-.33v1.64A1.37,1.37,0,0,0,403.43,312.48Z" style="fill:#263238"/><path d="M412.41,313.49a3.43,3.43,0,0,1-2.06.86v1.33h-1.18v-1.29a6.5,6.5,0,0,1-1.67-.31,4.31,4.31,0,0,1-1.29-.64l.66-1.45a4.35,4.35,0,0,0,1.05.56,4.94,4.94,0,0,0,1.25.29v-2a8.37,8.37,0,0,1-1.43-.45,2.49,2.49,0,0,1-1-.73,2,2,0,0,1-.39-1.27,2.28,2.28,0,0,1,.72-1.69,3.4,3.4,0,0,1,2.07-.86v-1.32h1.18v1.3a5.12,5.12,0,0,1,2.41.72l-.59,1.46a4.69,4.69,0,0,0-1.82-.62v2a7.94,7.94,0,0,1,1.41.43,2.54,2.54,0,0,1,1,.72,2,2,0,0,1,.39,1.27A2.25,2.25,0,0,1,412.41,313.49Zm-3.89-4.7a1.79,1.79,0,0,0,.65.32v-1.68a1.36,1.36,0,0,0-.67.33.8.8,0,0,0-.21.54A.59.59,0,0,0,408.52,308.79Zm2.47,3.69a.67.67,0,0,0,.22-.51.64.64,0,0,0-.22-.49,2.22,2.22,0,0,0-.64-.33v1.64A1.32,1.32,0,0,0,411,312.48Z" style="fill:#263238"/><path d="M420,313.49a3.4,3.4,0,0,1-2.05.86v1.33h-1.19v-1.29a6.58,6.58,0,0,1-1.67-.31,4.25,4.25,0,0,1-1.28-.64l.65-1.45a4.43,4.43,0,0,0,1.06.56,4.86,4.86,0,0,0,1.24.29v-2a8.24,8.24,0,0,1-1.42-.45,2.42,2.42,0,0,1-1-.73,2,2,0,0,1-.39-1.27,2.28,2.28,0,0,1,.72-1.69,3.35,3.35,0,0,1,2.06-.86v-1.32h1.19v1.3a5.15,5.15,0,0,1,2.41.72l-.59,1.46a4.75,4.75,0,0,0-1.82-.62v2a8.5,8.5,0,0,1,1.41.43,2.44,2.44,0,0,1,1,.72,2,2,0,0,1,.39,1.27A2.22,2.22,0,0,1,420,313.49Zm-3.89-4.7a1.87,1.87,0,0,0,.65.32v-1.68a1.28,1.28,0,0,0-.66.33.8.8,0,0,0-.21.54A.61.61,0,0,0,416.08,308.79Zm2.48,3.69a.7.7,0,0,0,.22-.51.64.64,0,0,0-.22-.49,2.22,2.22,0,0,0-.64-.33v1.64A1.32,1.32,0,0,0,418.56,312.48Z" style="fill:#263238"/><path d="M435.23,91.16c0,.14-37.12.26-82.9.26s-82.9-.12-82.9-.26,37.11-.27,82.9-.27S435.23,91,435.23,91.16Z" style="fill:#263238"/><path d="M401.38,384.18H307.24a19.66,19.66,0,0,1-19.66-19.66h0a19.67,19.67,0,0,1,19.66-19.67h94.14a19.67,19.67,0,0,1,19.67,19.67h0A19.67,19.67,0,0,1,401.38,384.18Z" style="fill:#FF725E"/><path d="M332.54,369.87a4.23,4.23,0,0,1,0-7.47,4.86,4.86,0,0,1,2.33-.55,4.79,4.79,0,0,1,2.32.55,4.24,4.24,0,0,1,1.63,1.54,4.22,4.22,0,0,1-1.63,5.93,4.69,4.69,0,0,1-2.32.56A4.75,4.75,0,0,1,332.54,369.87Zm3.66-1.41a2.5,2.5,0,0,0,.93-.95,2.7,2.7,0,0,0,.34-1.37,2.74,2.74,0,0,0-.34-1.38,2.54,2.54,0,0,0-.93-.94,2.77,2.77,0,0,0-2.66,0,2.54,2.54,0,0,0-.93.94,2.85,2.85,0,0,0-.34,1.38,2.81,2.81,0,0,0,.34,1.37,2.5,2.5,0,0,0,.93.95,2.77,2.77,0,0,0,2.66,0Z" style="fill:#fff"/><path d="M346.15,370.29l-1.6-2.31h-1.77v2.31h-1.92V362h3.59a4.7,4.7,0,0,1,1.92.36,2.77,2.77,0,0,1,1.69,2.65,2.71,2.71,0,0,1-1.71,2.62l1.86,2.67Zm-.49-6.36a2,2,0,0,0-1.31-.38h-1.57v2.9h1.57a2,2,0,0,0,1.31-.38,1.33,1.33,0,0,0,.45-1.07A1.31,1.31,0,0,0,345.66,363.93Z" style="fill:#fff"/><path d="M349.58,362h3.77a5.35,5.35,0,0,1,2.39.51,3.87,3.87,0,0,1,1.61,1.46,4.39,4.39,0,0,1,0,4.36,3.78,3.78,0,0,1-1.61,1.45,5.22,5.22,0,0,1-2.39.52h-3.77Zm3.67,6.72a2.8,2.8,0,0,0,2-.69,2.76,2.76,0,0,0,0-3.76,2.81,2.81,0,0,0-2-.7H351.5v5.15Z" style="fill:#fff"/><path d="M365.8,368.75v1.54h-6.43V362h6.28v1.54h-4.37v1.8h3.86v1.5h-3.86v1.92Z" style="fill:#fff"/><path d="M372.62,370.29,371,368h-1.77v2.31h-1.92V362h3.59a4.7,4.7,0,0,1,1.92.36,2.85,2.85,0,0,1,0,5.27l1.86,2.67Zm-.49-6.36a2,2,0,0,0-1.31-.38h-1.57v2.9h1.57a2,2,0,0,0,1.31-.38,1.33,1.33,0,0,0,.45-1.07A1.31,1.31,0,0,0,372.13,363.93Z" style="fill:#fff"/><rect x="271.91" y="98.12" width="56.05" height="54.91" style="fill:#ebebeb"/><path d="M271.91,98.12l.79,0H275l9.12,0,34.1-.08,117.2-.11h.25v.25c0,17.31,0,35.82,0,54.9h0v.26h-.26l-163.55-.09h-.17V153c0-17.24.07-31,.1-40.42,0-4.7,0-8.32,0-10.79,0-1.21,0-2.14,0-2.77s0-.93,0-.93,0,.33,0,1,0,1.58,0,2.81c0,2.47,0,6.11,0,10.82,0,9.42.06,23.12.1,40.32l-.18-.18,163.55-.08-.26.26h0V98.12l.26.25-117-.11-34.17-.08-9.16,0h-2.38Z" style="fill:#263238"/><polygon points="312.24 124.62 310.42 133.55 316.35 133.42 312.24 124.62" style="fill:#FF725E"/><g style="opacity:0.30000000000000004"><polygon points="312.24 124.62 310.42 133.55 316.35 133.42 312.24 124.62"/></g><polygon points="286.82 124.91 288.64 133.84 282.71 133.7 286.82 124.91" style="fill:#FF725E"/><g style="opacity:0.30000000000000004"><polygon points="286.82 124.91 288.64 133.84 282.71 133.7 286.82 124.91"/></g><path d="M302,126.56h0a.75.75,0,0,1-.75-.71l-.86-20.92a.74.74,0,0,1,.75-.78h1a.75.75,0,0,1,.75.75l-.18,20.92A.75.75,0,0,1,302,126.56Z" style="fill:#844031"/><rect x="300.48" y="106.82" width="2.47" height="1.82" style="fill:#FF725E"/><path d="M303.7,126.64h0a.74.74,0,0,1-.45-.93l6.37-19.94a.74.74,0,0,1,1-.48l1,.36a.75.75,0,0,1,.44,1l-7.35,19.58A.74.74,0,0,1,303.7,126.64Z" style="fill:#844031"/><rect x="308.98" y="107.61" width="1.82" height="2.47" transform="translate(101.25 362.52) rotate(-69.92)" style="fill:#FF725E"/><path d="M310.82,121.33a4.93,4.93,0,0,0-3.44-2.18,7,7,0,0,0-4,.71c-1,.46-2,1.09-3,.88a5.82,5.82,0,0,1-2-1.12,7,7,0,0,0-5.33-1.08,7.66,7.66,0,0,0-4.62,3.19,5.11,5.11,0,0,0-.9,4.21l23.62-.09A5.08,5.08,0,0,0,310.82,121.33Z" style="fill:#fff"/><path d="M310.19,125.32a5,5,0,0,0,0-1.16,4.3,4.3,0,0,0-1.33-2.79,3.37,3.37,0,0,0-1.95-.85,5.46,5.46,0,0,0-2.45.34c-.83.28-1.61.82-2.53,1.19a3.57,3.57,0,0,1-1.5.27,4,4,0,0,1-1.5-.41c-.95-.45-1.75-1.08-2.61-1.52a5,5,0,0,0-2.65-.59,5.36,5.36,0,0,0-4,2.18,7,7,0,0,0-1.25,2.89c-.07.37-.09.66-.11.86a1.16,1.16,0,0,1,0,.3,4.93,4.93,0,0,1,.06-1.17,6.83,6.83,0,0,1,1.21-3,5.49,5.49,0,0,1,4.08-2.28,5.26,5.26,0,0,1,2.76.6c.88.45,1.68,1.07,2.6,1.51a3.28,3.28,0,0,0,2.83.14c.89-.36,1.68-.89,2.55-1.18a5.64,5.64,0,0,1,2.53-.34,3.64,3.64,0,0,1,2,.92,4.27,4.27,0,0,1,1.31,2.89A3.17,3.17,0,0,1,310.19,125.32Z" style="fill:#263238"/><path d="M309.07,125.6a6.75,6.75,0,0,0,0-1,3.17,3.17,0,0,0-1.3-2.33,2.54,2.54,0,0,0-1.78-.43,5.42,5.42,0,0,0-2,.85,8.65,8.65,0,0,1-2.21,1.12,4.2,4.2,0,0,1-2.65-.26c-1.7-.67-3.07-1.81-4.6-2.11a4,4,0,0,0-3.72,1.18,5.18,5.18,0,0,0-1.27,2.43c-.14.64-.12,1-.15,1a4.21,4.21,0,0,1,.07-1,5,5,0,0,1,1.25-2.51,4.11,4.11,0,0,1,3.86-1.27c1.59.31,3,1.46,4.64,2.11a4.08,4.08,0,0,0,2.52.25,8.57,8.57,0,0,0,2.16-1.08,5.54,5.54,0,0,1,2.07-.86,2.6,2.6,0,0,1,1.89.48,3.23,3.23,0,0,1,1.3,2.45A2.67,2.67,0,0,1,309.07,125.6Z" style="fill:#263238"/><path d="M307.61,125.61a1.7,1.7,0,0,0-.13-.79,1.67,1.67,0,0,0-.6-.69,1.73,1.73,0,0,0-1.19-.18c-.94.14-1.77,1-3,1.41a5.6,5.6,0,0,1-4-.54,21.74,21.74,0,0,0-3.72-1.59,3.82,3.82,0,0,0-3.12.41,3.22,3.22,0,0,0-1.25,1.75,4.9,4.9,0,0,0-.12.8,2.06,2.06,0,0,1,0-.82,3.2,3.2,0,0,1,1.25-1.85,3.89,3.89,0,0,1,3.25-.47,20.07,20.07,0,0,1,3.75,1.58,5.48,5.48,0,0,0,3.86.55c1.15-.39,2-1.25,3-1.37a1.79,1.79,0,0,1,1.27.22,1.72,1.72,0,0,1,.62.76,1.23,1.23,0,0,1,.09.61A.71.71,0,0,1,307.61,125.61Z" style="fill:#263238"/><path d="M286.78,124.83c0,.61,4.34,22.9,4.34,22.9l17-.28,4.1-22.83Z" style="fill:#FF725E"/><path d="M286.78,124.83h.48l1.43,0,5.34-.07,18.21-.2h.16l-.07.15-2.63,5.23q-1.14,2.25-2.21,4.39l0,.05h-.07l-15.86,0h0l0,0-4.68-9.45,4.82,9.38-.07-.05,15.86,0-.09.05,2.21-4.38c.9-1.79,1.78-3.55,2.63-5.23l.1.15Z" style="fill:#263238"/><g style="opacity:0.30000000000000004"><polygon points="291.99 134.24 292.42 135.17 307.85 135.17 311.83 125.42 307.39 134.24 291.99 134.24"/></g><path d="M303,143.62a41.51,41.51,0,0,1-6,0,45.65,45.65,0,0,1,6,0Z" style="fill:#fff"/><path d="M301.91,140.07s0-.17-.1-.47a1.9,1.9,0,1,0-2.51,2.23,1.87,1.87,0,0,0,1.79-.25,1.93,1.93,0,0,0,.72-1c.08-.29.08-.47.1-.47a1.32,1.32,0,0,1,0,.49,2,2,0,0,1-.71,1.14,2,2,0,0,1-1.94.31,2.05,2.05,0,0,1,0-3.88,2,2,0,0,1,1.94.32,1.92,1.92,0,0,1,.71,1.13A1.31,1.31,0,0,1,301.91,140.07Z" style="fill:#fff"/><path d="M292,116.94a.69.69,0,0,0,.44-.44,1,1,0,0,0,0-.73,3.4,3.4,0,0,0-.56-.84,2.9,2.9,0,0,1,.39-4c.4-.37.89-.74.95-1.29a1.93,1.93,0,0,0-.68-1.43,5.45,5.45,0,0,1-1-1.28,3.37,3.37,0,0,1-.11-2.7,3.27,3.27,0,0,1,1.13-1.44,2,2,0,0,1,.6-.32s-.21.11-.55.38a3.32,3.32,0,0,0-1,1.43,3.25,3.25,0,0,0,.14,2.56,5.75,5.75,0,0,0,1,1.24,2.07,2.07,0,0,1,.74,1.58,2.52,2.52,0,0,1-1,1.42,2.74,2.74,0,0,0-.42,3.76,3.36,3.36,0,0,1,.56.89,1.09,1.09,0,0,1,0,.8C292.36,117,292,117,292,116.94Z" style="fill:#263238"/><path d="M294.67,116.94a.69.69,0,0,0,.44-.44,1,1,0,0,0,0-.73,3.4,3.4,0,0,0-.56-.84,2.9,2.9,0,0,1,.39-4c.4-.37.89-.74.95-1.29a1.93,1.93,0,0,0-.68-1.43,5.45,5.45,0,0,1-1-1.28,3.37,3.37,0,0,1-.11-2.7,3.27,3.27,0,0,1,1.13-1.44,2,2,0,0,1,.6-.32s-.22.11-.55.38a3.32,3.32,0,0,0-1,1.43,3.21,3.21,0,0,0,.14,2.56,5.75,5.75,0,0,0,1,1.24,2.07,2.07,0,0,1,.74,1.58,2.52,2.52,0,0,1-1,1.42,2.78,2.78,0,0,0-.85,1.27,2.73,2.73,0,0,0,.43,2.49,3.36,3.36,0,0,1,.56.89,1.09,1.09,0,0,1,0,.8C295,117,294.64,117,294.67,116.94Z" style="fill:#263238"/><rect x="338.83" y="107.97" width="32.45" height="4.42" style="fill:#FF725E"/><rect x="338.83" y="118.87" width="85.59" height="2.83" style="fill:#e0e0e0"/><rect x="338.83" y="124.54" width="85.59" height="2.83" style="fill:#e0e0e0"/><path d="M401.67,141.25h-1.62v1.59h-1.2v-1.59h-1.62v-1.13h1.62v-1.58h1.2v1.58h1.62Z" style="fill:#FF725E"/><path d="M412.73,142.72v1.22h-4.92v-1l2.51-2.38a2.5,2.5,0,0,0,.54-.65,1.28,1.28,0,0,0,.14-.55.72.72,0,0,0-.27-.6,1.2,1.2,0,0,0-.77-.21,1.71,1.71,0,0,0-.77.17,1.42,1.42,0,0,0-.58.48l-1.1-.7a2.49,2.49,0,0,1,1.05-.89,3.45,3.45,0,0,1,1.54-.32,3.34,3.34,0,0,1,1.27.23,2,2,0,0,1,.84.67,1.69,1.69,0,0,1,.31,1,2.26,2.26,0,0,1-.23,1,3.65,3.65,0,0,1-.86,1.06l-1.5,1.42Z" style="fill:#FF725E"/><path d="M418.74,140.74h2.64v1.17h-2.64Z" style="fill:#FF725E"/><path d="M424.42,148.22s0-.11,0-.29,0-.49,0-.81c0-.75,0-1.77-.05-3.07,0-2.68-.06-6.47-.1-11.14l.19.19-32.33.07.26-.26h0v7.88c0,2.56,0,5,0,7.42l-.25-.25,23.15.12,6.73.06,1.81,0,.64,0a4,4,0,0,1-.58,0l-1.76,0-6.67.06-23.32.12h-.25v-.24c0-2.38,0-4.86,0-7.42v-7.88h0l.26-.26,32.33.07h.19v.19c0,4.72-.07,8.55-.1,11.25,0,1.28,0,2.3-.05,3l0,.78A.67.67,0,0,1,424.42,148.22Z" style="fill:#263238"/><path d="M345.36,143.33a3.43,3.43,0,0,1-2.05.86v1.33h-1.19v-1.29a6.5,6.5,0,0,1-1.67-.31,4.13,4.13,0,0,1-1.28-.64l.65-1.45a4.35,4.35,0,0,0,1.05.56,4.92,4.92,0,0,0,1.25.28v-2a8,8,0,0,1-1.42-.45,2.46,2.46,0,0,1-1-.73,2,2,0,0,1-.39-1.27,2.28,2.28,0,0,1,.72-1.69,3.4,3.4,0,0,1,2.07-.86v-1.32h1.19v1.29a5.23,5.23,0,0,1,2.4.73l-.59,1.46a4.7,4.7,0,0,0-1.81-.62v2a8.08,8.08,0,0,1,1.4.43,2.47,2.47,0,0,1,1,.72,2,2,0,0,1,.39,1.27A2.25,2.25,0,0,1,345.36,143.33Zm-3.89-4.7a1.79,1.79,0,0,0,.65.32v-1.68a1.36,1.36,0,0,0-.67.33.8.8,0,0,0-.21.54A.62.62,0,0,0,341.47,138.63Zm2.47,3.69a.67.67,0,0,0,.22-.51.61.61,0,0,0-.22-.49,2,2,0,0,0-.63-.33v1.64A1.33,1.33,0,0,0,343.94,142.32Z" style="fill:#e0e0e0"/><path d="M354.33,143.33a3.43,3.43,0,0,1-2.06.86v1.33h-1.18v-1.29a6.42,6.42,0,0,1-1.67-.31,4.31,4.31,0,0,1-1.29-.64l.66-1.45a4.35,4.35,0,0,0,1,.56,4.92,4.92,0,0,0,1.25.28v-2a8.37,8.37,0,0,1-1.43-.45,2.49,2.49,0,0,1-1-.73,2,2,0,0,1-.39-1.27,2.28,2.28,0,0,1,.72-1.69,3.4,3.4,0,0,1,2.07-.86v-1.32h1.18v1.29a5.23,5.23,0,0,1,2.41.73l-.59,1.46a4.69,4.69,0,0,0-1.82-.62v2a7.94,7.94,0,0,1,1.41.43,2.54,2.54,0,0,1,1,.72,2,2,0,0,1,.39,1.27A2.25,2.25,0,0,1,354.33,143.33Zm-3.89-4.7a1.79,1.79,0,0,0,.65.32v-1.68a1.36,1.36,0,0,0-.67.33.8.8,0,0,0-.21.54A.59.59,0,0,0,350.44,138.63Zm2.47,3.69a.67.67,0,0,0,.22-.51.64.64,0,0,0-.22-.49,2,2,0,0,0-.64-.33v1.64A1.32,1.32,0,0,0,352.91,142.32Z" style="fill:#e0e0e0"/><path d="M328,153.54c-.15,0-.26-12.33-.26-27.54s.11-27.55.26-27.55.26,12.33.26,27.55S328.16,153.54,328,153.54Z" style="fill:#263238"/><rect x="271.91" y="158.7" width="56.05" height="54.91" style="fill:#ebebeb"/><path d="M271.91,158.7h.79l2.34,0,9.12,0,34.1-.07,117.2-.12h.25v.25c0,17.31,0,35.82,0,54.9h0v.26h-.26l-163.55-.09h-.17v-.17c0-17.24.07-31,.1-40.42,0-4.7,0-8.32,0-10.78,0-1.22,0-2.14,0-2.78s0-.93,0-.93,0,.33,0,1,0,1.57,0,2.8c0,2.47,0,6.11,0,10.82,0,9.42.06,23.13.1,40.32l-.18-.17,163.55-.09-.26.26h0V158.7l.26.25-117-.11-34.17-.07-9.16,0h-2.38Z" style="fill:#263238"/><rect x="338.83" y="168.55" width="32.45" height="4.42" style="fill:#FF725E"/><rect x="338.83" y="179.46" width="85.59" height="2.83" style="fill:#e0e0e0"/><rect x="338.83" y="185.12" width="85.59" height="2.83" style="fill:#e0e0e0"/><path d="M401.67,201.84h-1.62v1.58h-1.2v-1.58h-1.62V200.7h1.62v-1.58h1.2v1.58h1.62Z" style="fill:#FF725E"/><path d="M410.38,198v6.52h-1.51v-5.31h-1.3V198Z" style="fill:#FF725E"/><path d="M416.9,201.32h2.64v1.17H416.9Z" style="fill:#FF725E"/><path d="M424.42,208.8s0-.11,0-.29,0-.48,0-.81c0-.75,0-1.77-.05-3.07,0-2.68-.06-6.47-.1-11.14l.19.19-32.33.07.26-.26h0v7.89c0,2.56,0,5,0,7.41l-.25-.25,23.15.12,6.73.07,1.81,0,.64,0a4,4,0,0,1-.58,0l-1.76,0-6.67.07-23.32.11h-.25v-.25c0-2.37,0-4.85,0-7.41V193.5h0l.26-.26,32.33.07h.19v.19c0,4.72-.07,8.55-.1,11.26,0,1.28,0,2.29-.05,3l0,.78A.67.67,0,0,1,424.42,208.8Z" style="fill:#263238"/><path d="M345.36,203.91a3.43,3.43,0,0,1-2.05.86v1.33h-1.19v-1.29a6.1,6.1,0,0,1-1.67-.31,4.13,4.13,0,0,1-1.28-.64l.65-1.45a4,4,0,0,0,1.05.56,4.94,4.94,0,0,0,1.25.29v-2a10,10,0,0,1-1.42-.45,2.55,2.55,0,0,1-1-.73,2,2,0,0,1-.39-1.28,2.28,2.28,0,0,1,.72-1.69,3.4,3.4,0,0,1,2.07-.86V195h1.19v1.3a5.23,5.23,0,0,1,2.4.72l-.59,1.46a4.7,4.7,0,0,0-1.81-.62v2a9.06,9.06,0,0,1,1.4.43,2.49,2.49,0,0,1,1,.73,1.94,1.94,0,0,1,.39,1.26A2.24,2.24,0,0,1,345.36,203.91Zm-3.89-4.7a1.64,1.64,0,0,0,.65.32v-1.68a1.29,1.29,0,0,0-.67.34.76.76,0,0,0-.21.54A.6.6,0,0,0,341.47,199.21Zm2.47,3.69a.67.67,0,0,0,.22-.51.61.61,0,0,0-.22-.49,2.29,2.29,0,0,0-.63-.33v1.64A1.24,1.24,0,0,0,343.94,202.9Z" style="fill:#e0e0e0"/><path d="M328,214.12c-.15,0-.26-12.33-.26-27.54S327.87,159,328,159s.26,12.33.26,27.55S328.16,214.12,328,214.12Z" style="fill:#263238"/><rect x="271.91" y="219.14" width="56.05" height="54.91" style="fill:#ebebeb"/><path d="M271.91,219.14l.79,0,2.34,0,9.12,0,34.1-.07,117.2-.12h.25v.26c0,17.31,0,35.81,0,54.89h0v.26h-.26l-163.55-.09h-.17V274c0-17.23.07-31,.1-40.42,0-4.69,0-8.32,0-10.78,0-1.21,0-2.14,0-2.77s0-.93,0-.93,0,.33,0,1,0,1.58,0,2.8c0,2.48,0,6.11,0,10.83,0,9.42.06,23.12.1,40.31l-.18-.17,163.55-.09-.26.26h0V219.14l.26.25-117-.12-34.17-.07-9.16,0-2.38,0Z" style="fill:#263238"/><rect x="338.83" y="228.99" width="32.45" height="4.42" style="fill:#FF725E"/><rect x="338.83" y="239.89" width="85.59" height="2.83" style="fill:#e0e0e0"/><rect x="338.83" y="245.55" width="85.59" height="2.83" style="fill:#e0e0e0"/><path d="M401.67,262.27h-1.62v1.58h-1.2v-1.58h-1.62v-1.13h1.62v-1.59h1.2v1.59h1.62Z" style="fill:#FF725E"/><path d="M410.38,258.44V265h-1.51v-5.31h-1.3v-1.21Z" style="fill:#FF725E"/><path d="M416.9,261.76h2.64v1.16H416.9Z" style="fill:#FF725E"/><path d="M424.42,269.23s0-.1,0-.29,0-.48,0-.81c0-.74,0-1.77-.05-3.07,0-2.67-.06-6.47-.1-11.13l.19.19-32.33.07.26-.26h0v7.87c0,2.56,0,5,0,7.41l-.25-.24,23.15.11,6.73.07,1.81,0,.64,0a4,4,0,0,1-.58,0l-1.76,0-6.67.07-23.32.12h-.25v-.25c0-2.37,0-4.85,0-7.41V254h0c-.06,0,.49-.5.26-.27l32.33.07h.19v.2c0,4.71-.07,8.55-.1,11.25,0,1.28,0,2.29-.05,3l0,.77C424.44,269.15,424.43,269.24,424.42,269.23Z" style="fill:#263238"/><path d="M345.36,264.35a3.49,3.49,0,0,1-2.05.86v1.33h-1.19v-1.3a6.1,6.1,0,0,1-1.67-.31,3.92,3.92,0,0,1-1.28-.64l.65-1.44a4.33,4.33,0,0,0,1.05.55,4.54,4.54,0,0,0,1.25.29v-2a10,10,0,0,1-1.42-.45,2.55,2.55,0,0,1-1-.73,2,2,0,0,1-.39-1.28,2.29,2.29,0,0,1,.72-1.69,3.46,3.46,0,0,1,2.07-.86v-1.31h1.19v1.29a5.23,5.23,0,0,1,2.4.72l-.59,1.46a4.68,4.68,0,0,0-1.81-.61v2a9.06,9.06,0,0,1,1.4.43,2.59,2.59,0,0,1,1,.73,1.94,1.94,0,0,1,.39,1.26A2.26,2.26,0,0,1,345.36,264.35Zm-3.89-4.71a1.79,1.79,0,0,0,.65.33v-1.69a1.37,1.37,0,0,0-.67.34.76.76,0,0,0-.21.54A.59.59,0,0,0,341.47,259.64Zm2.47,3.69a.67.67,0,0,0,.22-.51.59.59,0,0,0-.22-.48,1.85,1.85,0,0,0-.63-.33v1.63A1.17,1.17,0,0,0,343.94,263.33Z" style="fill:#e0e0e0"/><path d="M353.51,264.35a3.46,3.46,0,0,1-2.05.86v1.33h-1.19v-1.3a6.17,6.17,0,0,1-1.67-.31,3.92,3.92,0,0,1-1.28-.64l.65-1.44a4.23,4.23,0,0,0,1.06.55,4.48,4.48,0,0,0,1.24.29v-2a10.45,10.45,0,0,1-1.42-.45,2.52,2.52,0,0,1-1-.73,2,2,0,0,1-.4-1.28,2.29,2.29,0,0,1,.72-1.69,3.46,3.46,0,0,1,2.07-.86v-1.31h1.19v1.29a5.31,5.31,0,0,1,2.41.72l-.6,1.46a4.68,4.68,0,0,0-1.81-.61v2a9.06,9.06,0,0,1,1.4.43,2.52,2.52,0,0,1,1,.73,1.94,1.94,0,0,1,.39,1.26A2.26,2.26,0,0,1,353.51,264.35Zm-3.89-4.71a1.87,1.87,0,0,0,.65.33v-1.69a1.29,1.29,0,0,0-.66.34.77.77,0,0,0-.22.54A.59.59,0,0,0,349.62,259.64Zm2.48,3.69a.69.69,0,0,0,.21-.51.59.59,0,0,0-.22-.48,1.76,1.76,0,0,0-.63-.33v1.63A1.2,1.2,0,0,0,352.1,263.33Z" style="fill:#e0e0e0"/><path d="M328,274.56c-.15,0-.26-12.34-.26-27.55s.11-27.54.26-27.54.26,12.33.26,27.54S328.16,274.56,328,274.56Z" style="fill:#263238"/><path d="M288.92,178.35,291,206a1.67,1.67,0,0,0,1.64,1.54l11.24.09a1.67,1.67,0,0,0,1.67-1.52l2.28-27.45Z" style="fill:#FF725E"/><g style="opacity:0.30000000000000004"><path d="M306.85,190.45a159.21,159.21,0,0,1-17.15-.23l.54,8.32s10,1.71,16-.38Z"/></g><g style="opacity:0.30000000000000004"><path d="M307.7,180.17A26.77,26.77,0,0,1,295.45,182c-5.44-.34-6.4-1.66-6.4-1.66l-.07-1.24,18.81,0Z"/></g><path d="M308.62,177.17l.44,1.91s-2.15,1.78-10.94,1.66c-7.87-.1-9.78-1.56-9.78-1.56l-.61-.52.54-1.8Z" style="fill:#e0e0e0"/><path d="M308.62,177.17h-1.57l-4.32,0-14.47-.2.06,0-.53,1.8,0-.07.64.54a4.29,4.29,0,0,0,.78.37l.41.14.42.13c.55.15,1.11.27,1.67.37a29.26,29.26,0,0,0,3.28.39,55.65,55.65,0,0,0,6,.11,30.85,30.85,0,0,0,4.84-.5,15,15,0,0,0,1.87-.47,5.38,5.38,0,0,0,1.38-.63v0l-.3-1.41-.08-.37,0-.13a.64.64,0,0,1,0,.12l.08.37c.08.32.2.8.34,1.41v0h0a5.46,5.46,0,0,1-1.39.65,14.84,14.84,0,0,1-1.87.49,30.94,30.94,0,0,1-4.85.52,55.73,55.73,0,0,1-6-.09,29.71,29.71,0,0,1-3.29-.39,17.1,17.1,0,0,1-1.69-.38c-.14,0-.28-.08-.42-.12s-.28-.09-.41-.15a3.73,3.73,0,0,1-.81-.38l-.65-.54,0,0v0c.19-.62.37-1.23.54-1.8v0h0l14.5.25,4.3.08,1.16,0h.39Z" style="fill:#263238"/><path d="M288.25,177c0,.92,4.52,1.58,10.18,1.73,3.86.1,9.5-.64,10.19-1.61.54-.74-4.55-1.69-10.17-1.73S288.26,176.1,288.25,177Z" style="fill:#fff"/><path d="M288.25,177a.45.45,0,0,1,0-.11.59.59,0,0,1,.2-.25,3.71,3.71,0,0,1,1.13-.49,24.87,24.87,0,0,1,4.47-.67,57.92,57.92,0,0,1,6.7-.08c1.27.07,2.59.17,4,.36.68.09,1.37.2,2.07.36a8.47,8.47,0,0,1,1,.28,3.66,3.66,0,0,1,.51.21l.12.07.12.08a.52.52,0,0,1,.1.11.25.25,0,0,1,0,.17.3.3,0,0,1-.07.15l-.11.11a1.88,1.88,0,0,1-.23.16,3.16,3.16,0,0,1-.5.22,8.06,8.06,0,0,1-1,.31c-.7.17-1.39.29-2.07.4-1.36.19-2.68.31-3.94.36a35.66,35.66,0,0,1-3.59,0c-1.12,0-2.17-.12-3.12-.21a26.51,26.51,0,0,1-4.46-.69,3.38,3.38,0,0,1-1.13-.49.53.53,0,0,1-.2-.25.42.42,0,0,1,0-.1s0,0,0,.1a.5.5,0,0,0,.2.23,3.66,3.66,0,0,0,1.13.46,27,27,0,0,0,4.46.66c.95.08,2,.14,3.11.18a35.49,35.49,0,0,0,3.58,0c1.26-.06,2.58-.17,3.94-.37.67-.1,1.36-.23,2.05-.39a9,9,0,0,0,1-.31,4.31,4.31,0,0,0,.49-.22,1.59,1.59,0,0,0,.21-.15.35.35,0,0,0,.14-.17.22.22,0,0,0-.1-.18,795787496703.13,795787496703.13,0,0,1-.22-.14,4.19,4.19,0,0,0-.49-.2,9.17,9.17,0,0,0-1-.27c-.69-.16-1.38-.27-2.06-.36-1.35-.19-2.67-.3-3.93-.36a58.56,58.56,0,0,0-6.7.05,24.59,24.59,0,0,0-4.46.63,3.72,3.72,0,0,0-1.12.46.7.7,0,0,0-.21.23C288.26,177,288.26,177,288.25,177Z" style="fill:#263238"/><path d="M304.24,175.39l.24,1.07s-1.21,1.1-6.15.94-5.49-.88-5.49-.88l-.14-.17.1-1.14Z" style="fill:#e0e0e0"/><path d="M304.24,175.39h-.89l-2.43,0-8.13-.11.07-.05c0,.36-.07.74-.1,1.13l0,0,.11.12a.24.24,0,0,0,.1.1,3.14,3.14,0,0,0,.9.33c.31.08.63.14.94.19.62.09,1.24.15,1.84.2a32.27,32.27,0,0,0,3.33.1,16.08,16.08,0,0,0,2.71-.26,6.8,6.8,0,0,0,1-.28,2.56,2.56,0,0,0,.76-.37v0l-.17-.8,0-.2a.45.45,0,0,1,0-.08.31.31,0,0,1,0,.07l.05.2c.05.19.11.45.2.8h0a3.08,3.08,0,0,1-.77.4,8.14,8.14,0,0,1-1,.29,16.09,16.09,0,0,1-2.72.29c-1,0-2.15,0-3.35-.09-.6-.05-1.22-.11-1.85-.2-.31,0-.63-.11-.95-.19a3.17,3.17,0,0,1-.94-.35.49.49,0,0,1-.13-.12l-.1-.12,0,0v0l.1-1.13v-.06h.06l8.16.15,2.41.06.65,0h.22Z" style="fill:#263238"/><path d="M292.79,175.3c0,.52,2.56,1,5.72,1s5.73-.39,5.73-.91-2.56-1-5.72-1S292.79,174.78,292.79,175.3Z" style="fill:#fff"/><path d="M292.79,175.3s0-.1.12-.2a1.79,1.79,0,0,1,.63-.28,13.83,13.83,0,0,1,2.52-.39,32.77,32.77,0,0,1,3.78-.05c.71,0,1.45.08,2.22.18.38.06.77.12,1.17.21a4.3,4.3,0,0,1,.58.18,1.47,1.47,0,0,1,.28.14.37.37,0,0,1,.21.28.38.38,0,0,1-.21.29,1.17,1.17,0,0,1-.28.13,3.53,3.53,0,0,1-.59.17c-.39.09-.78.15-1.17.2-.77.09-1.52.13-2.23.15a29.66,29.66,0,0,1-3.77-.1,13.27,13.27,0,0,1-2.51-.41,2.15,2.15,0,0,1-.64-.29c-.13-.1-.12-.21-.11-.21a.26.26,0,0,0,.13.19,2.16,2.16,0,0,0,.63.26,14.8,14.8,0,0,0,2.51.38,34.34,34.34,0,0,0,3.76.07c.71,0,1.45-.07,2.22-.16a11.53,11.53,0,0,0,1.15-.2,3.7,3.7,0,0,0,.57-.16l.27-.13c.08,0,.15-.11.15-.18s-.07-.13-.15-.18a2.1,2.1,0,0,0-.26-.13c-.19-.07-.38-.12-.57-.17-.39-.09-.77-.15-1.16-.21-.76-.1-1.5-.15-2.21-.19a35.34,35.34,0,0,0-3.76,0,14.34,14.34,0,0,0-2.51.34,2.25,2.25,0,0,0-.64.26A.27.27,0,0,0,292.79,175.3Z" style="fill:#263238"/><path d="M297.58,175.07l-.27-12.36,1.56-.07.26,12.44C298.52,175.06,298.14,175.27,297.58,175.07Z" style="fill:#fff"/><path d="M297.58,175.07a1.67,1.67,0,0,0,.39.07,3,3,0,0,0,.49,0,3.43,3.43,0,0,1,.68-.05l0,0c-.07-2.25-.19-7-.3-12.39v0l.06.06-1.56.06.06-.06c.07,3.47.13,6.56.17,8.78,0,1.1,0,2,0,2.62v1a.28.28,0,0,0,0-.06v-.18c0-.16,0-.4,0-.7,0-.62,0-1.51-.07-2.61-.06-2.23-.14-5.32-.22-8.81v-.06h.06l1.55-.07h.07v.1c.12,5.44.2,10.15.23,12.4v0h0a4.55,4.55,0,0,0-.67,0,2.89,2.89,0,0,1-.49,0,1.19,1.19,0,0,1-.29-.06Z" style="fill:#263238"/><polygon points="298.39 162.72 298.65 175.11 298.07 175.09 297.72 162.73 298.39 162.72" style="fill:#455a64"/><path d="M297,174.94s.69.09,1.53.1,1.54-.11,1.54-.07a1.68,1.68,0,0,1-.44.11,6.62,6.62,0,0,1-1.1.08,6.14,6.14,0,0,1-1.09-.1A1.15,1.15,0,0,1,297,174.94Z" style="fill:#263238"/><path d="M308.1,179.57a3,3,0,0,1-.3-.92,4.8,4.8,0,0,1-.18-.94,3,3,0,0,1,.3.92A4.8,4.8,0,0,1,308.1,179.57Z" style="fill:#263238"/><path d="M306.47,180.07a4.2,4.2,0,0,1-.31-.94,4,4,0,0,1-.19-1,4.2,4.2,0,0,1,.31.94A3.48,3.48,0,0,1,306.47,180.07Z" style="fill:#263238"/><path d="M304.71,180.46a5.08,5.08,0,0,1-.27-1,4.92,4.92,0,0,1-.15-1,3.84,3.84,0,0,1,.27,1A3.68,3.68,0,0,1,304.71,180.46Z" style="fill:#263238"/><path d="M302.64,180.68a8.58,8.58,0,0,1-.3-2,5.14,5.14,0,0,1,.21,1A4.81,4.81,0,0,1,302.64,180.68Z" style="fill:#263238"/><path d="M300.46,180.78a4.75,4.75,0,0,1,0-1,4.44,4.44,0,0,1,.1-1,4.75,4.75,0,0,1,0,1A4.54,4.54,0,0,1,300.46,180.78Z" style="fill:#263238"/><path d="M298.68,180.73a3.36,3.36,0,0,1,0-1,4,4,0,0,1,.12-1,3.34,3.34,0,0,1,0,1A4.11,4.11,0,0,1,298.68,180.73Z" style="fill:#263238"/><path d="M296.8,180.66a3,3,0,0,1,.06-1,3.27,3.27,0,0,1,.23-.95,4.39,4.39,0,0,1-.11,1A5,5,0,0,1,296.8,180.66Z" style="fill:#263238"/><path d="M294.57,180.51a4.31,4.31,0,0,1,.21-1,4.38,4.38,0,0,1,.33-1,3.75,3.75,0,0,1-.21,1A4.38,4.38,0,0,1,294.57,180.51Z" style="fill:#263238"/><path d="M292.54,180.36a4.77,4.77,0,0,1,.2-1,3.77,3.77,0,0,1,.32-1,4.63,4.63,0,0,1-.2,1A3.76,3.76,0,0,1,292.54,180.36Z" style="fill:#263238"/><path d="M290.15,179.9a4.06,4.06,0,0,1,.25-.94,4.14,4.14,0,0,1,.38-.9,8.11,8.11,0,0,1-.63,1.84Z" style="fill:#263238"/><path d="M288.36,179.23a3.26,3.26,0,0,1,.23-.84,2.7,2.7,0,0,1,.34-.8,3.16,3.16,0,0,1-.23.84A2.7,2.7,0,0,1,288.36,179.23Z" style="fill:#263238"/><path d="M302.66,243.68a8.9,8.9,0,0,0,1.72-4.43,7.23,7.23,0,0,0-.68-4.2c-.05-.09-.1-.19-.2-.22a.4.4,0,0,0-.3,0,5.08,5.08,0,0,0-.54,8.8" style="fill:#455a64"/><path d="M305.77,240a6.73,6.73,0,0,0,2.9-2.13,5.38,5.38,0,0,0,1.27-3,.29.29,0,0,0,0-.22.31.31,0,0,0-.21-.09,3.84,3.84,0,0,0-3.92,5.39" style="fill:#455a64"/><path d="M305.24,243.57a2.08,2.08,0,0,0-.69-2,3.11,3.11,0,0,0-2-.71,3.3,3.3,0,0,0-1.84.49,2.46,2.46,0,0,0-1.1,1.54,2.42,2.42,0,0,0,.77,2.2,3.29,3.29,0,0,0,2.23.82,2.71,2.71,0,0,0,1.87-.69,2.35,2.35,0,0,0,.8-1.66" style="fill:#FF725E"/><path d="M312.29,245.58c2.77.49,5.52-2.58,6.18-4.57a.69.69,0,0,0,0-.64.66.66,0,0,0-.66-.15,6.43,6.43,0,0,0-3.63,1.77,6.59,6.59,0,0,0-1.87,3.59" style="fill:#455a64"/><path d="M315.41,244.06a2.09,2.09,0,0,0-.69-2,3.06,3.06,0,0,0-2-.71,3.34,3.34,0,0,0-1.85.49,2.31,2.31,0,0,0-.33,3.74,3.23,3.23,0,0,0,2.23.81,2.68,2.68,0,0,0,1.87-.68,2.33,2.33,0,0,0,.81-1.67" style="fill:#FF725E"/><path d="M295.16,239.74a2.08,2.08,0,0,0-.69-2,3.17,3.17,0,0,0-2-.71,3.4,3.4,0,0,0-1.84.5,2.29,2.29,0,0,0-.34,3.73,3.27,3.27,0,0,0,2.24.82,2.71,2.71,0,0,0,1.87-.69,2.35,2.35,0,0,0,.8-1.66" style="fill:#FF725E"/><path d="M301.12,244.66a8.92,8.92,0,0,0-1.87-4.37,7.14,7.14,0,0,0-3.42-2.53.42.42,0,0,0-.29,0,.36.36,0,0,0-.18.25,5.08,5.08,0,0,0,5.76,6.67" style="fill:#455a64"/><path d="M291,242.19a13.72,13.72,0,0,1-1.46-2,4.65,4.65,0,0,1-.62-2.4.47.47,0,0,1,.13-.34.45.45,0,0,1,.36,0,7.67,7.67,0,0,1,5.94,6.67l.08.42a5.92,5.92,0,0,1-4.38.65,9.34,9.34,0,0,1-3.38-1.33,4.84,4.84,0,0,1-2.05-2.92A6.55,6.55,0,0,1,291,242.19Z" style="fill:#455a64"/><path d="M308.27,239.75a9.9,9.9,0,0,1,4.9-2.49,7,7,0,0,1-6.16,7.79l-.11-.2A5.1,5.1,0,0,1,308.27,239.75Z" style="fill:#455a64"/><path d="M317.84,243.6a30.4,30.4,0,0,1-5.55,11.22c-6.13,7.55-20,5.45-23.73-.46-1.45-2.26-5.27-10.68-5.27-10.68Z" style="fill:#fff"/><path d="M317.84,243.6h-.69l-2,0-7.28,0-24.62.11.09-.15c1.12,2.45,2.31,5,3.58,7.55.33.66.67,1.31,1,2a10,10,0,0,0,1.16,1.81,10.22,10.22,0,0,0,3.28,2.61,17.77,17.77,0,0,0,7.68,2,17.25,17.25,0,0,0,7.1-1.17,12.89,12.89,0,0,0,5.06-3.65,30,30,0,0,0,4.52-7.94c.39-1,.65-1.82.82-2.36l.24-.84a21.62,21.62,0,0,1-1,3.23,30,30,0,0,1-4.48,8,13,13,0,0,1-5.12,3.72,17.24,17.24,0,0,1-7.17,1.2,17.78,17.78,0,0,1-7.77-2,10.43,10.43,0,0,1-3.34-2.66,11.13,11.13,0,0,1-1.19-1.84c-.34-.65-.68-1.31-1-2-1.28-2.56-2.46-5.1-3.59-7.55l-.06-.15h34.71Z" style="fill:#263238"/><path d="M315.57,249.24c0,.06-6.63.1-14.81.1s-14.82,0-14.82-.1,6.63-.1,14.82-.1S315.57,249.18,315.57,249.24Z" style="fill:#FF725E"/><path d="M316.17,248.39c0,.06-6.87.1-15.34.1s-15.34,0-15.34-.1,6.86-.11,15.34-.11S316.17,248.33,316.17,248.39Z" style="fill:#FF725E"/></g></svg>