<svg xmlns="http://www.w3.org/2000/svg" version="1.1" xmlns:xlink="http://www.w3.org/1999/xlink" xmlns:svgjs="http://svgjs.dev/svgjs" width="2000" height="1500" viewBox="0 0 2000 1500"><rect width="2000" height="1500" fill="#ffffff"></rect><g transform="matrix(0.75,0,0,0.75,249.090909090909,282.7536437246963)"><svg viewBox="0 0 396 247" data-background-color="#ffffff" preserveAspectRatio="xMidYMid meet" height="1247" width="2000" xmlns="http://www.w3.org/2000/svg" xmlns:xlink="http://www.w3.org/1999/xlink"><g id="tight-bounds" transform="matrix(1,0,0,1,0.2400000000000091,-0.09999999999999432)"><svg viewBox="0 0 395.52 247.2" height="247.2" width="395.52"><g><svg></svg></g><g><svg viewBox="0 0 395.52 247.2" height="247.2" width="395.52"><g transform="matrix(1,0,0,1,75.54432,88.3815089000592)"><svg viewBox="0 0 244.43135999999998 70.4369821998816" height="70.4369821998816" width="244.43135999999998"><g><svg viewBox="0 0 445.63078683441506 128.4159602105676" height="70.4369821998816" width="244.43135999999998"><g><rect width="7.041727259883934" height="93.70121991796147" x="262.86520099446057" y="17.35737014630306" fill="#ff7549" opacity="1" stroke-width="0" stroke="transparent" fill-opacity="1" class="rect-qz-0" data-fill-palette-color="primary" rx="1%" id="qz-0" data-palette-color="#ff7549"></rect></g><g transform="matrix(1,0,0,1,0,25.165805139466514)"><svg viewBox="0 0 244.43135999999998 78.08434993163456" height="78.08434993163456" width="244.43135999999998"><g id="textblocktransform"><svg viewBox="0 0 244.43135999999998 78.08434993163456" height="78.08434993163456" width="244.43135999999998" id="textblock"><g><svg viewBox="0 0 244.43135999999998 78.08434993163456" height="78.08434993163456" width="244.43135999999998"><g transform="matrix(1,0,0,1,0,0)"><svg width="244.43135999999998" viewBox="3.85 -25.35 80.45 25.700000000000003" height="78.08434993163456" data-palette-color="#ff7549"><path d="M3.85 0L3.85-25 7.3-25 7.5-21.35Q8.5-22.7 9.93-23.65 11.35-24.6 13.08-24.98 14.8-25.35 16.75-25L16.75-25 16.75-21.25Q14.65-21.65 12.98-21.25 11.3-20.85 10.1-19.75 8.9-18.65 8.25-16.98 7.6-15.3 7.6-13.1L7.6-13.1 7.6 0 3.85 0ZM21.85 0L21.85-25 25.3-25 25.55-21.4Q26.65-23.2 28.52-24.28 30.4-25.35 33-25.35L33-25.35Q35.65-25.35 37.82-24.08 40-22.8 41.2-20.3L41.2-20.3Q42.35-22.85 44.7-24.1 47.05-25.35 49.9-25.35L49.9-25.35Q52.7-25.35 54.85-24.13 57-22.9 58.2-20.48 59.4-18.05 59.4-14.4L59.4-14.4 59.4 0 55.65 0 55.65-13.95Q55.65-17.85 53.97-19.88 52.3-21.9 49.2-21.9L49.2-21.9Q46.05-21.9 44.2-19.73 42.35-17.55 42.35-13.3L42.35-13.3 42.35 0 38.6 0 38.6-13.95Q38.6-17.85 37-19.88 35.4-21.9 32.3-21.9L32.3-21.9Q29.15-21.9 27.37-19.73 25.6-17.55 25.6-13.3L25.6-13.3 25.6 0 21.85 0ZM65.09-6.45L68.7-7.65Q69-6.15 69.8-5.18 70.59-4.2 71.87-3.7 73.15-3.2 74.84-3.2L74.84-3.2Q77.5-3.2 78.87-4.23 80.25-5.25 80.25-6.8L80.25-6.8Q80.25-8.1 79.42-8.9 78.59-9.7 77.25-10.23 75.9-10.75 74.25-11.15L74.25-11.15Q72.95-11.45 71.45-11.88 69.95-12.3 68.59-13.05 67.25-13.8 66.39-15 65.55-16.2 65.55-18.15L65.55-18.15Q65.55-20.3 66.72-21.93 67.89-23.55 69.97-24.45 72.05-25.35 74.75-25.35L74.75-25.35Q77.84-25.35 80.27-24 82.7-22.65 83.65-19.8L83.65-19.8 80.15-18.6Q79.8-19.9 78.87-20.6 77.95-21.3 76.82-21.55 75.7-21.8 74.59-21.8L74.59-21.8Q72.34-21.8 70.97-20.93 69.59-20.05 69.59-18.3L69.59-18.3Q69.59-17.35 70.05-16.73 70.5-16.1 71.3-15.7 72.09-15.3 73.2-15.03 74.3-14.75 75.59-14.4L75.59-14.4Q77.05-14.05 78.55-13.53 80.05-13 81.34-12.18 82.65-11.35 83.47-10.08 84.3-8.8 84.3-6.9L84.3-6.9Q84.3-4.7 83.09-3.08 81.9-1.45 79.77-0.55 77.65 0.35 74.84 0.35L74.84 0.35Q71 0.35 68.47-1.38 65.95-3.1 65.09-6.45L65.09-6.45Z" opacity="1" transform="matrix(1,0,0,1,0,0)" fill="#ff7549" class="wordmark-text-0" data-fill-palette-color="primary" id="text-0"></path></svg></g></svg></g></svg></g></svg></g><g transform="matrix(1,0,0,1,288.3407692488051,0)"><svg viewBox="0 0 157.29001758561 128.4159602105676" height="128.4159602105676" width="157.29001758561"><g><svg xmlns="http://www.w3.org/2000/svg" xmlns:xlink="http://www.w3.org/1999/xlink" version="1.1" x="0" y="0" viewBox="-250.04066758784506 361.00000042777066 90.24066758784511 73.67499957222941" style="enable-background:new -255 347 100 100;" xml:space="preserve" height="128.4159602105676" width="157.29001758561" class="icon-icon-0" data-fill-palette-color="accent" id="icon-0"><g fill="#ff7549" data-fill-palette-color="accent"><circle cx="-227.4" cy="375.1" r="14" fill="#ff7549" data-fill-palette-color="accent"></circle><path d="M-187.3 400.3l-7.7 9.9-10.9-13.4c-0.6-1.1-1.8-1.8-3.2-1.8h-37.2c-2.9 0-4.7 3.1-3.2 5.6l18.6 32.2c1.4 2.5 5 2.5 6.5 0l14.8-25.7 10.4 13.4c0 0 1.6 2 4 2 2.4 0 3.5-1.8 3.5-1.8l11.6-15.4c0 0 9.3-1.6 11.2-5.1H-187.3z" fill="#ff7549" data-fill-palette-color="accent"></path><path d="M-163.6 392.4c0 0-2.3-12.7-14.2-12.7 0 0 2.6-0.9 2.6-3 0-2.1-1.6-3.1-3.1-3.1-1.5 0-3.1 0.9-3.1 3.1 0 2.1 2.6 3 2.6 3-11.9 0-14.2 12.7-14.2 12.7-1.5 0-3.6 0.5-3.6 3 0 2.5 3.4 2.8 3.4 2.8h14.5 0.5 0.5 14.5c0 0 3.4-0.3 3.4-2.8C-160 392.8-162.1 392.4-163.6 392.4z" fill="#ff7549" data-fill-palette-color="accent"></path></g></svg></g></svg></g></svg></g></svg></g><g><path d="M245.816 0c68.262 0 123.6 55.338 123.6 123.6 0 68.262-55.338 123.6-123.6 123.6-54.162 0-100.187-34.837-116.89-83.326l2.045 0c16.623 47.403 61.764 81.395 114.845 81.395 67.196 0 121.669-54.473 121.668-121.669 0-67.196-54.473-121.669-121.668-121.669-53.081 0-98.222 33.992-114.845 81.395l-2.045 0c16.703-48.489 62.728-83.326 116.89-83.326z" fill="#ea9937" stroke="transparent" data-fill-palette-color="tertiary"></path></g></svg></g><defs></defs></svg><rect width="395.52" height="247.2" fill="none" stroke="none" visibility="hidden"></rect></g></svg></g></svg>